<?xml version="1.0" encoding="utf-8"?>
<!-- Generator: Adobe Illustrator 22.0.0, SVG Export Plug-In . SVG Version: 6.00 Build 0)  -->
<svg version="1.1" id="Layer_1" xmlns="http://www.w3.org/2000/svg" xmlns:xlink="http://www.w3.org/1999/xlink" x="0px" y="0px"
	 viewBox="0 0 1347.6 357.6" style="enable-background:new 0 0 1347.6 357.6;" xml:space="preserve">
<style type="text/css">
	.st0{fill:#B0B1B1;}
	.st1{fill:#E3E3E3;}
	.st2{fill:#C9C9C9;}
	.st3{fill:#F0EFEF;}
	.st4{fill:#84D2F6;}
	.st5{fill:#524A44;}
	.st6{fill:#969696;}
	.st7{fill:#676767;}
	.st8{fill:#4E4E4E;}
	.st9{fill:#FFFFFF;}
	.st10{fill:#41B655;}
	.st11{fill:#378F43;}
	.st12{fill:#6C4E2B;}
	.st13{fill:#6F6459;}
	.st14{fill:#333333;}
</style>
<g id="City_copia">
	<g>
		<polygon class="st0" points="396,357.6 438.1,357.6 438.1,275 417,244.1 396,275 		"/>
		<rect x="337.7" y="275" class="st1" width="58.3" height="82.6"/>
		<polygon class="st2" points="358.8,244.1 417,244.1 396,275 337.7,275 		"/>
		<polygon class="st3" points="392.5,275 396,275 417,244.1 413.6,244.1 		"/>
		<rect x="340" y="271.6" class="st3" width="56" height="3.4"/>
		<g>
			<path class="st4" d="M359.9,348.9h-11.4V328c0-3.2,2.6-5.7,5.7-5.7l0,0c3.2,0,5.7,2.6,5.7,5.7L359.9,348.9L359.9,348.9z"/>
			<path class="st4" d="M385.2,348.9h-11.4V328c0-3.2,2.6-5.7,5.7-5.7l0,0c3.2,0,5.7,2.6,5.7,5.7L385.2,348.9L385.2,348.9z"/>
		</g>
		<g>
			<path class="st4" d="M359.9,311.1h-11.4v-20.9c0-3.2,2.6-5.7,5.7-5.7l0,0c3.2,0,5.7,2.6,5.7,5.7L359.9,311.1L359.9,311.1z"/>
			<path class="st4" d="M385.2,311.1h-11.4v-20.9c0-3.2,2.6-5.7,5.7-5.7l0,0c3.2,0,5.7,2.6,5.7,5.7L385.2,311.1L385.2,311.1z"/>
		</g>
	</g>
	<g>
		<polygon class="st2" points="1305.4,357.6 1347.6,357.6 1347.6,307.8 1326.5,276.9 1305.4,307.8 		"/>
		<rect x="1247.1" y="307.8" class="st3" width="58.3" height="49.8"/>
		<polygon class="st2" points="1268.2,276.9 1326.5,276.9 1305.4,307.8 1247.1,307.8 		"/>
		<polygon class="st5" points="1301.9,307.8 1305.4,307.8 1326.5,276.9 1323,276.9 		"/>
		<rect x="1250.2" y="304.4" class="st5" width="55" height="3.4"/>
		<polygon class="st5" points="1247.1,307.8 1250.6,307.8 1271.7,276.9 1268.2,276.9 		"/>
		<g>
			<path class="st4" d="M1264.7,345.2h-11.4v-20.9c0-3.2,2.6-5.7,5.7-5.7l0,0c3.2,0,5.7,2.6,5.7,5.7L1264.7,345.2L1264.7,345.2z"/>
			<path class="st4" d="M1299.3,345.2h-11.4v-20.9c0-3.2,2.6-5.7,5.7-5.7l0,0c3.2,0,5.7,2.6,5.7,5.7L1299.3,345.2L1299.3,345.2z"/>
			<path class="st4" d="M1282,345.2h-11.4v-20.9c0-3.2,2.6-5.7,5.7-5.7l0,0c3.2,0,5.7,2.6,5.7,5.7L1282,345.2L1282,345.2z"/>
		</g>
	</g>
	<g>
		<rect x="865.8" y="0" class="st6" width="82.6" height="357.6"/>
		<polygon class="st1" points="966.3,357.6 905.7,357.6 866.1,204.2 866.1,24.4 905.7,24.4 966.3,75.8 		"/>
		<path class="st4" d="M954.5,345.8c-13.5-0.1-27.1-0.2-40.6-0.3c-12.5-46.3-25.1-92.7-37.6-139V46.7h30.9l47.3,45.7V345.8z"/>
	</g>
	<g>
		<rect x="735.8" y="213.6" class="st2" width="97.3" height="144"/>
		<rect x="741.4" y="169" class="st7" width="86.1" height="39"/>
		<polygon class="st8" points="735.8,208 735.8,164.5 741.4,164.5 741.4,208 827.5,208 827.5,164.5 833.1,164.5 833.1,208 
			833.1,208 833.1,213.6 735.8,213.6 		"/>
		<rect x="761" y="157.6" class="st3" width="10.5" height="28.7"/>
		<g>
			<path class="st4" d="M808.8,256.2h12.7v-24.1c0-3.5-2.8-6.3-6.3-6.3l0,0c-3.5,0-6.3,2.8-6.3,6.3v24.1H808.8z"/>
			<path class="st4" d="M788.4,256.2h12.7v-24.1c0-3.5-2.8-6.3-6.3-6.3l0,0c-3.5,0-6.3,2.8-6.3,6.3v24.1H788.4z"/>
			<path class="st4" d="M767.9,256.2h12.7v-24.1c0-3.5-2.8-6.3-6.3-6.3l0,0c-3.5,0-6.3,2.8-6.3,6.3v24.1H767.9z"/>
			<path class="st4" d="M747.4,256.2h12.7v-24.1c0-3.5-2.8-6.3-6.3-6.3l0,0c-3.5,0-6.3,2.8-6.3,6.3v24.1H747.4z"/>
		</g>
		<g>
			<path class="st4" d="M808.8,300.6h12.7v-24.1c0-3.5-2.8-6.3-6.3-6.3l0,0c-3.5,0-6.3,2.8-6.3,6.3v24.1H808.8z"/>
			<path class="st4" d="M788.4,300.6h12.7v-24.1c0-3.5-2.8-6.3-6.3-6.3l0,0c-3.5,0-6.3,2.8-6.3,6.3v24.1H788.4z"/>
			<path class="st4" d="M767.9,300.6h12.7v-24.1c0-3.5-2.8-6.3-6.3-6.3l0,0c-3.5,0-6.3,2.8-6.3,6.3v24.1H767.9z"/>
			<path class="st4" d="M747.4,300.6h12.7v-24.1c0-3.5-2.8-6.3-6.3-6.3l0,0c-3.5,0-6.3,2.8-6.3,6.3v24.1H747.4z"/>
		</g>
		<g>
			<path class="st4" d="M808.8,345h12.7v-24.1c0-3.5-2.8-6.3-6.3-6.3l0,0c-3.5,0-6.3,2.8-6.3,6.3V345H808.8z"/>
			<path class="st4" d="M788.4,345h12.7v-24.1c0-3.5-2.8-6.3-6.3-6.3l0,0c-3.5,0-6.3,2.8-6.3,6.3V345H788.4z"/>
			<path class="st4" d="M767.9,345h12.7v-24.1c0-3.5-2.8-6.3-6.3-6.3l0,0c-3.5,0-6.3,2.8-6.3,6.3V345H767.9z"/>
			<path class="st4" d="M747.4,345h12.7v-24.1c0-3.5-2.8-6.3-6.3-6.3l0,0c-3.5,0-6.3,2.8-6.3,6.3V345H747.4z"/>
		</g>
	</g>
	<g>
		<rect x="1179.1" y="257.7" class="st9" width="97.3" height="99.9"/>
		<rect x="1179.1" y="307.9" class="st1" width="97.3" height="49.7"/>
		<rect x="1184.7" y="213.1" class="st7" width="86.1" height="39"/>
		<polygon class="st8" points="1179.1,252.1 1179.1,208.6 1184.7,208.6 1184.7,252.1 1270.8,252.1 1270.8,208.6 1276.4,208.6 
			1276.4,252.1 1276.4,252.1 1276.4,257.7 1179.1,257.7 		"/>
		<rect x="1239.5" y="201.7" class="st3" width="10.5" height="28.7"/>
		<g>
			<path class="st4" d="M1252.1,300.3h12.7v-24.1c0-3.5-2.8-6.3-6.3-6.3l0,0c-3.5,0-6.3,2.8-6.3,6.3L1252.1,300.3L1252.1,300.3z"/>
			<path class="st4" d="M1231.7,300.3h12.7v-24.1c0-3.5-2.8-6.3-6.3-6.3l0,0c-3.5,0-6.3,2.8-6.3,6.3L1231.7,300.3L1231.7,300.3z"/>
			<path class="st4" d="M1211.2,300.3h12.7v-24.1c0-3.5-2.8-6.3-6.3-6.3l0,0c-3.5,0-6.4,2.8-6.4,6.3L1211.2,300.3L1211.2,300.3z"/>
			<path class="st4" d="M1190.7,300.3h12.7v-24.1c0-3.5-2.8-6.3-6.3-6.3l0,0c-3.5,0-6.3,2.8-6.3,6.3L1190.7,300.3L1190.7,300.3z"/>
		</g>
		<g>
			<path class="st4" d="M1252.1,344.7h12.7v-24.1c0-3.5-2.8-6.3-6.3-6.3l0,0c-3.5,0-6.3,2.8-6.3,6.3L1252.1,344.7L1252.1,344.7z"/>
			<path class="st4" d="M1231.7,344.7h12.7v-24.1c0-3.5-2.8-6.3-6.3-6.3l0,0c-3.5,0-6.3,2.8-6.3,6.3L1231.7,344.7L1231.7,344.7z"/>
			<path class="st4" d="M1211.2,344.7h12.7v-24.1c0-3.5-2.8-6.3-6.3-6.3l0,0c-3.5,0-6.4,2.8-6.4,6.3L1211.2,344.7L1211.2,344.7z"/>
			<path class="st4" d="M1190.7,344.7h12.7v-24.1c0-3.5-2.8-6.3-6.3-6.3l0,0c-3.5,0-6.3,2.8-6.3,6.3L1190.7,344.7L1190.7,344.7z"/>
		</g>
	</g>
	<g>
		<rect x="571.2" y="288.7" class="st2" width="97.3" height="53.5"/>
		<rect x="576.8" y="244.1" class="st7" width="86.1" height="39"/>
		<polygon class="st6" points="571.2,283.1 571.2,239.6 576.8,239.6 576.8,283.1 662.9,283.1 662.9,239.6 668.5,239.6 668.5,283.1 
			668.5,283.1 668.5,288.7 571.2,288.7 		"/>
		<rect x="596.4" y="232.6" class="st3" width="10.5" height="28.7"/>
		<g>
			<path class="st4" d="M644.2,332h12.7v-24.1c0-3.5-2.8-6.3-6.3-6.3l0,0c-3.5,0-6.3,2.8-6.3,6.3V332H644.2z"/>
			<path class="st4" d="M623.8,332h12.7v-24.1c0-3.5-2.8-6.3-6.3-6.3l0,0c-3.5,0-6.3,2.8-6.3,6.3V332H623.8z"/>
			<path class="st4" d="M603.3,332H616v-24.1c0-3.5-2.8-6.3-6.3-6.3l0,0c-3.5,0-6.3,2.8-6.3,6.3V332H603.3z"/>
			<path class="st4" d="M582.8,332h12.7v-24.1c0-3.5-2.8-6.3-6.3-6.3l0,0c-3.5,0-6.3,2.8-6.3,6.3V332H582.8z"/>
		</g>
		<rect x="571.2" y="342.2" class="st0" width="97.3" height="15.4"/>
	</g>
	<g>
		<polygon class="st1" points="906.1,235 906.1,201.7 808.8,201.7 808.8,312.3 808.8,312.3 808.8,344.7 906.1,344.7 		"/>
		<g>
			<rect x="820.4" y="314.5" class="st4" width="12.7" height="24.1"/>
			<rect x="840.9" y="314.5" class="st4" width="12.7" height="24.1"/>
			<rect x="861.4" y="314.5" class="st4" width="12.7" height="24.1"/>
			<rect x="881.8" y="314.5" class="st4" width="12.7" height="24.1"/>
		</g>
		<rect x="806" y="344.7" class="st0" width="102.9" height="12.9"/>
		<rect x="814.5" y="157.1" class="st2" width="86.1" height="39"/>
		<polygon class="st3" points="808.9,196.1 808.9,152.6 814.5,152.6 814.5,196.1 900.5,196.1 900.5,152.6 906.1,152.6 906.1,196.1 
			906.1,196.1 906.1,201.7 808.8,201.7 808.8,196.1 		"/>
		<rect x="873.4" y="145.7" class="st9" width="5.3" height="28.7"/>
		<rect x="882.9" y="145.7" class="st9" width="5.3" height="28.7"/>
		<g>
			<path class="st4" d="M881.8,257h12.7v-24.1c0-3.5-2.8-6.3-6.3-6.3l0,0c-3.5,0-6.3,2.8-6.3,6.3V257H881.8z"/>
			<path class="st4" d="M861.4,257h12.7v-24.1c0-3.5-2.8-6.3-6.3-6.3l0,0c-3.5,0-6.3,2.8-6.3,6.3V257H861.4z"/>
			<path class="st4" d="M840.9,257h12.7v-24.1c0-3.5-2.8-6.3-6.3-6.3l0,0c-3.5,0-6.3,2.8-6.3,6.3V257H840.9z"/>
			<path class="st4" d="M820.4,257h12.7v-24.1c0-3.5-2.8-6.3-6.3-6.3l0,0c-3.5,0-6.3,2.8-6.3,6.3V257H820.4z"/>
		</g>
		<g>
			<path class="st4" d="M881.8,301.4h12.7v-24.9c0-3.6-2.8-6.6-6.3-6.6l0,0c-3.5,0-6.3,2.9-6.3,6.6v24.9H881.8z"/>
			<path class="st4" d="M861.4,301.4h12.7v-24.9c0-3.6-2.8-6.6-6.3-6.6l0,0c-3.5,0-6.3,2.9-6.3,6.6v24.9H861.4z"/>
			<path class="st4" d="M840.9,301.4h12.7v-24.9c0-3.6-2.8-6.6-6.3-6.6l0,0c-3.5,0-6.3,2.9-6.3,6.6v24.9H840.9z"/>
			<path class="st4" d="M820.4,301.4h12.7v-24.9c0-3.6-2.8-6.6-6.3-6.6l0,0c-3.5,0-6.3,2.9-6.3,6.6v24.9H820.4z"/>
		</g>
	</g>
	<g>
		<path class="st10" d="M1328.6,298.5C1328.6,298.5,1328.5,298.5,1328.6,298.5l-0.1,37.6c0,0,0.1,0,0.1,0c10.4,0,18.8-8.4,18.8-18.8
			C1347.4,306.9,1339,298.5,1328.6,298.5z"/>
		<path class="st11" d="M1309.8,317.3c0-10.4,8.3-18.7,18.7-18.8v-0.1C1318.1,298.4,1309.7,306.8,1309.8,317.3
			c-0.1,10.4,8.3,18.8,18.7,18.8v0C1318.1,336,1309.8,327.7,1309.8,317.3z"/>
		<path class="st11" d="M1309.8,317.3c0,10.4,8.3,18.7,18.7,18.8v-37.6C1318.1,298.6,1309.8,306.9,1309.8,317.3z"/>
		<rect x="1326" y="325.5" class="st12" width="5" height="32.1"/>
	</g>
	<g>
		<rect x="642.5" y="260.2" class="st1" width="64.6" height="91.4"/>
		<polygon class="st2" points="665.8,226 730.4,226 707,260.2 642.5,260.2 		"/>
		<polygon class="st9" points="730.4,226 707,260.2 707,351.6 753.7,351.6 753.7,357.6 753.8,357.6 753.8,260.2 		"/>
		<rect x="707" y="351.6" class="st2" width="46.7" height="6"/>
		<rect x="642.5" y="351.6" class="st6" width="64.6" height="6"/>
		<rect x="671.2" y="219.2" class="st1" width="5.3" height="26.8"/>
		<rect x="681.4" y="219.2" class="st1" width="5.3" height="26.8"/>
		<g>
			<rect x="685.3" y="320.5" class="st4" width="9.4" height="27.1"/>
			<rect x="670" y="320.5" class="st4" width="9.4" height="27.1"/>
			<rect x="654.8" y="320.5" class="st4" width="9.4" height="27.1"/>
		</g>
		<g>
			<rect x="685.3" y="271.3" class="st4" width="9.4" height="27.1"/>
			<rect x="670" y="271.3" class="st4" width="9.4" height="27.1"/>
			<rect x="654.8" y="271.3" class="st4" width="9.4" height="27.1"/>
		</g>
		<polygon class="st13" points="703.2,260.2 707,260.2 730.4,226 726.5,226 		"/>
		<rect x="645.8" y="256.4" class="st13" width="60.9" height="3.8"/>
		<polygon class="st3" points="642.5,260.2 646.3,260.2 669.7,226 665.8,226 		"/>
		<circle class="st4" cx="730.4" cy="255.3" r="5"/>
	</g>
	<g>
		<polygon class="st0" points="1164.9,357.6 1207.1,357.6 1207.1,274.7 1186,243.8 1164.9,274.7 		"/>
		<rect x="1106.6" y="274.7" class="st1" width="58.3" height="82.9"/>
		<polygon class="st2" points="1127.7,243.8 1186,243.8 1164.9,274.7 1106.6,274.7 		"/>
		<rect x="1132.6" y="237.7" class="st3" width="4.8" height="24.2"/>
		<rect x="1141.7" y="237.7" class="st3" width="4.8" height="24.2"/>
		<polygon class="st3" points="1161.4,274.7 1164.9,274.7 1186,243.8 1182.5,243.8 		"/>
		<rect x="1109.6" y="271.3" class="st3" width="55" height="3.4"/>
		<polygon class="st3" points="1106.6,274.7 1110.1,274.7 1131.2,243.8 1127.7,243.8 		"/>
		<g>
			<path class="st4" d="M1128.8,349.9h-11.4V329c0-3.2,2.6-5.7,5.7-5.7l0,0c3.2,0,5.7,2.6,5.7,5.7L1128.8,349.9L1128.8,349.9z"/>
			<path class="st4" d="M1154.1,349.9h-11.4V329c0-3.2,2.6-5.7,5.7-5.7l0,0c3.2,0,5.7,2.6,5.7,5.7L1154.1,349.9L1154.1,349.9z"/>
		</g>
		<g>
			<path class="st4" d="M1128.8,312.1h-11.4v-20.9c0-3.2,2.6-5.7,5.7-5.7l0,0c3.2,0,5.7,2.6,5.7,5.7L1128.8,312.1L1128.8,312.1z"/>
			<path class="st4" d="M1154.1,312.1h-11.4v-20.9c0-3.2,2.6-5.7,5.7-5.7l0,0c3.2,0,5.7,2.6,5.7,5.7L1154.1,312.1L1154.1,312.1z"/>
		</g>
	</g>
	<g>
		<rect x="1022.5" y="213.6" class="st2" width="97.3" height="131.1"/>
		<rect x="1028.1" y="169" class="st7" width="86.1" height="39"/>
		<polygon class="st8" points="1119.8,208 1119.8,164.5 1114.2,164.5 1114.2,208 1028.1,208 1028.1,164.5 1022.5,164.5 1022.5,208 
			1022.5,208 1022.5,213.6 1119.8,213.6 		"/>
		<rect x="1084" y="157.6" class="st8" width="10.6" height="28.7"/>
		<g>
			<path class="st4" d="M1046.8,256.2h-12.7v-24.1c0-3.5,2.8-6.3,6.3-6.3l0,0c3.5,0,6.3,2.8,6.3,6.3L1046.8,256.2L1046.8,256.2z"/>
			<path class="st4" d="M1067.2,256.2h-12.7v-24.1c0-3.5,2.8-6.3,6.3-6.3l0,0c3.5,0,6.3,2.8,6.3,6.3L1067.2,256.2L1067.2,256.2z"/>
			<path class="st4" d="M1087.7,256.2H1075v-24.1c0-3.5,2.8-6.3,6.3-6.3l0,0c3.5,0,6.3,2.8,6.3,6.3L1087.7,256.2L1087.7,256.2z"/>
			<path class="st4" d="M1108.2,256.2h-12.7v-24.1c0-3.5,2.8-6.3,6.3-6.3l0,0c3.5,0,6.3,2.8,6.3,6.3L1108.2,256.2L1108.2,256.2z"/>
		</g>
		<g>
			<path class="st4" d="M1046.8,300.6h-12.7v-24.1c0-3.5,2.8-6.3,6.3-6.3l0,0c3.5,0,6.3,2.8,6.3,6.3L1046.8,300.6L1046.8,300.6z"/>
			<path class="st4" d="M1067.2,300.6h-12.7v-24.1c0-3.5,2.8-6.3,6.3-6.3l0,0c3.5,0,6.3,2.8,6.3,6.3L1067.2,300.6L1067.2,300.6z"/>
			<path class="st4" d="M1087.7,300.6H1075v-24.1c0-3.5,2.8-6.3,6.3-6.3l0,0c3.5,0,6.3,2.8,6.3,6.3L1087.7,300.6L1087.7,300.6z"/>
			<path class="st4" d="M1108.2,300.6h-12.7v-24.1c0-3.5,2.8-6.3,6.3-6.3l0,0c3.5,0,6.3,2.8,6.3,6.3L1108.2,300.6L1108.2,300.6z"/>
		</g>
		<g>
			<rect x="1034.1" y="314.5" class="st4" width="12.7" height="24.1"/>
			<rect x="1054.6" y="314.5" class="st4" width="12.7" height="24.1"/>
			<rect x="1075" y="314.5" class="st4" width="12.7" height="24.1"/>
			<rect x="1095.5" y="314.5" class="st4" width="12.7" height="24.1"/>
		</g>
		<rect x="1019.7" y="344.7" class="st6" width="102.9" height="12.9"/>
	</g>
	<g>
		<rect x="932.1" y="214.4" class="st3" width="96.7" height="128.4"/>
		<rect x="999.4" y="189.5" class="st14" width="10.5" height="25"/>
		<rect x="988.8" y="181.1" class="st14" width="6.9" height="33.4"/>
		<g>
			<path class="st4" d="M956.2,255.4h-12.6v-24c0-3.5,2.8-6.3,6.3-6.3l0,0c3.5,0,6.3,2.8,6.3,6.3V255.4z"/>
			<path class="st4" d="M976.6,255.4H964v-24c0-3.5,2.8-6.3,6.3-6.3l0,0c3.5,0,6.3,2.8,6.3,6.3V255.4z"/>
			<path class="st4" d="M997,255.4h-12.6v-24c0-3.5,2.8-6.3,6.3-6.3l0,0c3.5,0,6.3,2.8,6.3,6.3V255.4z"/>
			<path class="st4" d="M1017.3,255.4h-12.6v-24c0-3.5,2.8-6.3,6.3-6.3l0,0c3.5,0,6.3,2.8,6.3,6.3V255.4z"/>
		</g>
		<g>
			<path class="st4" d="M956.2,302.3h-12.6v-24c0-3.5,2.8-6.3,6.3-6.3l0,0c3.5,0,6.3,2.8,6.3,6.3V302.3z"/>
			<path class="st4" d="M976.6,302.3H964v-24c0-3.5,2.8-6.3,6.3-6.3l0,0c3.5,0,6.3,2.8,6.3,6.3V302.3z"/>
			<path class="st4" d="M997,302.3h-12.6v-24c0-3.5,2.8-6.3,6.3-6.3l0,0c3.5,0,6.3,2.8,6.3,6.3V302.3z"/>
			<path class="st4" d="M1017.3,302.3h-12.6v-24c0-3.5,2.8-6.3,6.3-6.3l0,0c3.5,0,6.3,2.8,6.3,6.3V302.3z"/>
		</g>
		<g>
			<rect x="943.6" y="314.8" class="st7" width="73.7" height="24"/>
		</g>
		<rect x="929.3" y="342.8" class="st0" width="102.3" height="14.9"/>
		<rect x="929.3" y="261.3" class="st6" width="102.3" height="4.8"/>
		<rect x="929.3" y="212" class="st6" width="102.3" height="4.8"/>
		<rect x="927.4" y="204.3" class="st2" width="106.2" height="9.2"/>
		<g>
			<g>
				<circle class="st9" cx="1020.3" cy="328" r="2.8"/>
				<circle class="st14" cx="1014.7" cy="328" r="2.8"/>
				<circle class="st9" cx="1009" cy="328" r="2.8"/>
				<circle class="st14" cx="1003.3" cy="328" r="2.8"/>
				<circle class="st9" cx="997.6" cy="328" r="2.8"/>
				<circle class="st14" cx="991.9" cy="328" r="2.8"/>
				<path class="st9" d="M989,328c0,1.6-1.3,2.8-2.8,2.8c-1.6,0-2.8-1.3-2.8-2.8c0-1.6,1.3-2.8,2.8-2.8
					C987.8,325.2,989,326.5,989,328z"/>
				<path class="st14" d="M983.3,328c0,1.6-1.3,2.8-2.8,2.8c-1.6,0-2.8-1.3-2.8-2.8c0-1.6,1.3-2.8,2.8-2.8
					C982.1,325.2,983.3,326.5,983.3,328z"/>
				<circle class="st9" cx="974.8" cy="328" r="2.8"/>
				<circle class="st14" cx="969.1" cy="328" r="2.8"/>
				<circle class="st9" cx="963.4" cy="328" r="2.8"/>
				<circle class="st14" cx="957.7" cy="328" r="2.8"/>
				<circle class="st9" cx="952" cy="328" r="2.8"/>
				<circle class="st14" cx="946.3" cy="328" r="2.8"/>
				<circle class="st9" cx="940.6" cy="328" r="2.8"/>
			</g>
			<rect x="937.8" y="309.8" class="st6" width="85.4" height="18.2"/>
		</g>
	</g>
	<g>
		<path class="st10" d="M1125.7,307.9c-8.8,0-15.9,7.1-15.9,15.9c0,0,0,0,0,0C1109.8,315.1,1116.9,308,1125.7,307.9v31.8
			c8.8,0,15.9-7.1,15.9-15.9S1134.4,307.9,1125.7,307.9z"/>
		<path class="st11" d="M1109.8,323.8C1109.8,323.9,1109.8,323.9,1109.8,323.8c0,7.7,5.4,14.1,12.7,15.5
			C1115.3,337.9,1109.8,331.5,1109.8,323.8z"/>
		<path class="st11" d="M1124.1,339.6c-0.4,0-0.8-0.1-1.2-0.2C1123.3,339.5,1123.7,339.6,1124.1,339.6z"/>
		<path class="st11" d="M1109.8,323.8c0,7.7,5.5,14.1,12.7,15.5c0.1,0,0.2,0,0.4,0.1c0.4,0.1,0.8,0.1,1.2,0.2
			c0.5,0.1,1.1,0.1,1.6,0.1V308C1116.9,308,1109.8,315.1,1109.8,323.8z"/>
		<rect x="1123.6" y="330.7" class="st12" width="4.2" height="26.9"/>
	</g>
	<g>
		<path class="st10" d="M1293,330.8c2.6,5.3,8,8.9,14.3,8.9h0C1301.1,339.7,1295.7,336.1,1293,330.8z"/>
		<path class="st10" d="M1307.3,307.9c-8.8,0-15.9,7.1-15.9,15.9c0,0,0,0,0,0.1C1291.4,315.1,1298.5,308,1307.3,307.9l0,31.8
			c8.8,0,15.9-7.1,15.9-15.9C1323.2,315,1316.1,307.9,1307.3,307.9z"/>
		<path class="st11" d="M1291.4,323.9c0,2.5,0.6,4.8,1.6,6.9C1292,328.7,1291.4,326.4,1291.4,323.9
			C1291.4,323.9,1291.4,323.9,1291.4,323.9z"/>
		<path class="st11" d="M1291.4,323.9c0,2.5,0.6,4.9,1.6,7c2.6,5.2,8,8.9,14.3,8.9V308C1298.5,308,1291.4,315.1,1291.4,323.9z"/>
		<rect x="1305.2" y="330.7" class="st12" width="4.2" height="26.9"/>
	</g>
	<g>
		<path class="st10" d="M919,307.9c-8.8,0-15.9,7.1-15.9,15.9c0,0,0,0,0,0C903.1,315.1,910.2,308,919,307.9v31.8
			c8.8,0,15.9-7.1,15.9-15.9S927.8,307.9,919,307.9z"/>
		<path class="st10" d="M903.1,324.3c0.3,8.5,7.3,15.4,15.9,15.4C910.4,339.7,903.5,332.8,903.1,324.3z"/>
		<path class="st11" d="M903.1,323.9c0,0.1,0,0.3,0,0.4C903.1,324.2,903.1,324,903.1,323.9C903.1,323.9,903.1,323.9,903.1,323.9z"/>
		<path class="st11" d="M903.1,323.8c0,0.2,0,0.3,0,0.5c0.3,8.5,7.3,15.4,15.9,15.4V308C910.2,308,903.1,315.1,903.1,323.8z"/>
		<rect x="916.9" y="330.7" class="st12" width="4.2" height="26.9"/>
	</g>
	<g>
		<path class="st10" d="M893.5,298.5v37.6c10.4,0,18.8-8.4,18.8-18.8C912.3,306.9,903.9,298.5,893.5,298.5z"/>
		<path class="st10" d="M874.7,317.3c0,0.2,0,0.3,0,0.5C874.7,317.6,874.7,317.4,874.7,317.3C874.7,317.3,874.7,317.3,874.7,317.3z"
			/>
		<path class="st11" d="M893.5,298.5L893.5,298.5c-10.4-0.1-18.8,8.3-18.8,18.7c0,0,0,0,0,0.1C874.7,306.9,883.1,298.5,893.5,298.5z
			"/>
		<path class="st11" d="M874.7,317.8c0.2,9.5,7.5,17.2,16.7,18.2C882.2,335,875,327.2,874.7,317.8z"/>
		<path class="st11" d="M893.5,336.1L893.5,336.1c-0.6,0-1.3,0-1.9-0.1C892.2,336.1,892.9,336.1,893.5,336.1z"/>
		<path class="st11" d="M874.7,317.3c0,0.2,0,0.3,0,0.5c0.2,9.5,7.4,17.2,16.7,18.2c0.1,0,0.1,0,0.2,0c0.6,0.1,1.3,0.1,1.9,0.1
			v-37.6C883.1,298.5,874.7,306.9,874.7,317.3z"/>
		<rect x="891" y="325.5" class="st12" width="5" height="32.1"/>
	</g>
	<g>
		<polygon class="st2" points="536.5,357.6 578.7,357.6 578.7,308.1 557.6,277.2 536.5,308.1 		"/>
		<rect x="478.2" y="308.1" class="st3" width="58.3" height="49.5"/>
		<polygon class="st2" points="499.3,277.2 557.6,277.2 536.5,308.1 478.2,308.1 		"/>
		<polygon class="st5" points="533,308.1 536.5,308.1 557.6,277.2 554.1,277.2 		"/>
		<rect x="481.2" y="304.7" class="st5" width="55" height="3.4"/>
		<polygon class="st5" points="478.2,308.1 481.7,308.1 502.8,277.2 499.3,277.2 		"/>
		<g>
			<path class="st4" d="M495.7,345.5h-11.4v-20.9c0-3.2,2.6-5.7,5.7-5.7l0,0c3.2,0,5.7,2.6,5.7,5.7L495.7,345.5L495.7,345.5z"/>
			<path class="st4" d="M530.4,345.5H519v-20.9c0-3.2,2.6-5.7,5.7-5.7l0,0c3.2,0,5.7,2.6,5.7,5.7V345.5z"/>
			<path class="st4" d="M513.1,345.5h-11.4v-20.9c0-3.2,2.6-5.7,5.7-5.7l0,0c3.2,0,5.7,2.6,5.7,5.7V345.5z"/>
		</g>
	</g>
	<g>
		<path class="st10" d="M568.8,316.3C568.8,316.3,568.8,316.3,568.8,316.3c0,9.8,7.3,17.7,16.8,18.7
			C576.2,334,568.8,326,568.8,316.3z"/>
		<path class="st10" d="M587.6,297.5L587.6,297.5l0,37.6h0c10.4,0,18.8-8.4,18.8-18.8C606.4,305.9,598,297.5,587.6,297.5z"/>
		<path class="st11" d="M587.6,335.1L587.6,335.1c-0.7,0-1.4,0-2-0.1C586.2,335.1,586.9,335.1,587.6,335.1z"/>
		<path class="st11" d="M587.6,297.5L587.6,297.5c-10.4-0.1-18.8,8.3-18.8,18.7c0,0,0,0,0,0.1C568.8,305.9,577.2,297.5,587.6,297.5z
			"/>
		<path class="st11" d="M568.8,316.3c0,9.8,7.3,17.7,16.8,18.7c0.7,0.1,1.3,0.1,2,0.1v-37.6C577.2,297.5,568.8,305.9,568.8,316.3z"
			/>
		<rect x="585.1" y="324.5" class="st12" width="5" height="33.1"/>
	</g>
	<g>
		<rect x="410.2" y="258" class="st9" width="97.3" height="99.6"/>
		<rect x="410.2" y="308.2" class="st1" width="97.3" height="49.4"/>
		<rect x="415.8" y="213.4" class="st7" width="86.1" height="39"/>
		<rect x="470.5" y="202" class="st3" width="10.5" height="28.7"/>
		<g>
			<path class="st4" d="M483.2,300.6h12.7v-24.1c0-3.5-2.8-6.3-6.3-6.3l0,0c-3.5,0-6.3,2.8-6.3,6.3v24.1H483.2z"/>
			<path class="st4" d="M462.7,300.6h12.7v-24.1c0-3.5-2.8-6.3-6.3-6.3l0,0c-3.5,0-6.3,2.8-6.3,6.3v24.1H462.7z"/>
			<path class="st4" d="M442.2,300.6h12.7v-24.1c0-3.5-2.8-6.3-6.3-6.3l0,0c-3.5,0-6.4,2.8-6.4,6.3L442.2,300.6L442.2,300.6z"/>
			<path class="st4" d="M421.8,300.6h12.7v-24.1c0-3.5-2.8-6.3-6.3-6.3l0,0c-3.5,0-6.3,2.8-6.3,6.3v24.1H421.8z"/>
		</g>
		<g>
			<path class="st4" d="M483.2,345h12.7v-24.1c0-3.5-2.8-6.3-6.3-6.3l0,0c-3.5,0-6.3,2.8-6.3,6.3V345H483.2z"/>
			<path class="st4" d="M462.7,345h12.7v-24.1c0-3.5-2.8-6.3-6.3-6.3l0,0c-3.5,0-6.3,2.8-6.3,6.3V345H462.7z"/>
			<path class="st4" d="M442.2,345h12.7v-24.1c0-3.5-2.8-6.3-6.3-6.3l0,0c-3.5,0-6.4,2.8-6.4,6.3L442.2,345L442.2,345z"/>
			<path class="st4" d="M421.8,345h12.7v-24.1c0-3.5-2.8-6.3-6.3-6.3l0,0c-3.5,0-6.3,2.8-6.3,6.3V345H421.8z"/>
		</g>
		<polygon class="st8" points="410.2,252.4 410.2,208.9 415.8,208.9 415.8,252.4 501.9,252.4 501.9,208.9 507.5,208.9 507.5,252.4 
			507.4,252.4 507.4,258 410.2,258 		"/>
	</g>
	<g>
		<polygon class="st1" points="39.7,357.6 0,357.6 0,307.6 19.9,276.8 39.7,307.6 		"/>
		<rect x="39.7" y="307.6" class="st3" width="54.9" height="50"/>
		<polygon class="st2" points="74.8,276.8 19.9,276.8 39.7,307.6 94.6,307.6 		"/>
		<polygon class="st5" points="43,307.6 39.7,307.6 19.9,276.8 23.2,276.8 		"/>
		<g>
			<path class="st4" d="M78.1,345h10.8v-20.9c0-3.2-2.4-5.7-5.4-5.7l0,0c-3,0-5.4,2.6-5.4,5.7V345z"/>
			<path class="st4" d="M45.5,345h10.8v-20.9c0-3.2-2.4-5.7-5.4-5.7l0,0c-3,0-5.4,2.6-5.4,5.7C45.5,324.1,45.5,345,45.5,345z"/>
			<path class="st4" d="M61.8,345h10.8v-20.9c0-3.2-2.4-5.7-5.4-5.7l0,0c-3,0-5.4,2.6-5.4,5.7C61.8,324.1,61.8,345,61.8,345z"/>
		</g>
		<g>
			<path class="st4" d="M13.8,344.8h10.8V324c0-3.2-2.4-5.7-5.4-5.7l0,0c-3,0-5.4,2.6-5.4,5.7C13.8,324,13.8,344.8,13.8,344.8z"/>
		</g>
	</g>
	<g>
		<polygon class="st0" points="113.2,357.6 155.4,357.6 155.4,275.1 134.3,244.3 113.2,275.1 		"/>
		<rect x="54.9" y="277.8" class="st1" width="58.3" height="79.8"/>
		<polygon class="st7" points="76,244.3 134.3,244.3 113.2,275.1 54.9,275.1 		"/>
		<rect x="80.9" y="240.8" class="st3" width="4.8" height="24.2"/>
		<rect x="90" y="238.1" class="st3" width="4.8" height="24.2"/>
		<polygon class="st5" points="109.7,277.8 113.2,277.8 134.3,246.9 130.8,246.9 		"/>
		<rect x="58" y="274.4" class="st8" width="55" height="3.4"/>
		<polygon class="st7" points="54.9,277.8 58.4,277.8 79.5,246.9 76,246.9 		"/>
		<g>
			<path class="st4" d="M77.1,350.3H65.7v-20.9c0-3.2,2.6-5.7,5.7-5.7l0,0c3.2,0,5.7,2.6,5.7,5.7C77.1,329.4,77.1,350.3,77.1,350.3z
				"/>
			<path class="st4" d="M102.5,350.3H91v-20.9c0-3.2,2.6-5.7,5.7-5.7l0,0c3.2,0,5.7,2.6,5.7,5.7v20.9H102.5z"/>
		</g>
		<g>
			<path class="st4" d="M77.1,312.5H65.7v-20.9c0-3.2,2.6-5.7,5.7-5.7l0,0c3.2,0,5.7,2.6,5.7,5.7C77.1,291.6,77.1,312.5,77.1,312.5z
				"/>
			<path class="st4" d="M102.5,312.5H91v-20.9c0-3.2,2.6-5.7,5.7-5.7l0,0c3.2,0,5.7,2.6,5.7,5.7v20.9H102.5z"/>
		</g>
	</g>
	<g>
		<rect x="123.4" y="213.6" class="st2" width="97.3" height="144"/>
		<rect x="129" y="169" class="st6" width="86.1" height="39"/>
		<polygon class="st7" points="123.4,208 123.4,164.5 129,164.5 129,208 215,208 215,164.5 220.6,164.5 220.6,208 220.6,208 
			220.6,213.6 123.3,213.6 123.3,208 		"/>
		<rect x="148.5" y="157.6" class="st3" width="10.5" height="28.7"/>
		<g>
			<path class="st4" d="M196.4,256.2H209v-24.1c0-3.5-2.8-6.3-6.3-6.3l0,0c-3.5,0-6.3,2.8-6.3,6.3V256.2z"/>
			<path class="st4" d="M175.9,256.2h12.7v-24.1c0-3.5-2.8-6.3-6.3-6.3l0,0c-3.5,0-6.3,2.8-6.3,6.3L175.9,256.2L175.9,256.2z"/>
			<path class="st4" d="M155.4,256.2h12.7v-24.1c0-3.5-2.8-6.3-6.3-6.3l0,0c-3.5,0-6.3,2.8-6.3,6.3L155.4,256.2L155.4,256.2z"/>
			<path class="st4" d="M135,256.2h12.7v-24.1c0-3.5-2.8-6.3-6.3-6.3l0,0c-3.5,0-6.3,2.8-6.3,6.3L135,256.2L135,256.2z"/>
		</g>
		<g>
			<path class="st4" d="M196.4,300.6H209v-24.1c0-3.5-2.8-6.3-6.3-6.3l0,0c-3.5,0-6.3,2.8-6.3,6.3V300.6z"/>
			<path class="st4" d="M175.9,300.6h12.7v-24.1c0-3.5-2.8-6.3-6.3-6.3l0,0c-3.5,0-6.3,2.8-6.3,6.3L175.9,300.6L175.9,300.6z"/>
			<path class="st4" d="M155.4,300.6h12.7v-24.1c0-3.5-2.8-6.3-6.3-6.3l0,0c-3.5,0-6.3,2.8-6.3,6.3L155.4,300.6L155.4,300.6z"/>
			<path class="st4" d="M135,300.6h12.7v-24.1c0-3.5-2.8-6.3-6.3-6.3l0,0c-3.5,0-6.3,2.8-6.3,6.3L135,300.6L135,300.6z"/>
		</g>
		<g>
			<path class="st4" d="M196.4,345H209v-24.1c0-3.5-2.8-6.3-6.3-6.3l0,0c-3.5,0-6.3,2.8-6.3,6.3V345z"/>
			<path class="st4" d="M175.9,345h12.7v-24.1c0-3.5-2.8-6.3-6.3-6.3l0,0c-3.5,0-6.3,2.8-6.3,6.3L175.9,345L175.9,345z"/>
			<path class="st4" d="M155.4,345h12.7v-24.1c0-3.5-2.8-6.3-6.3-6.3l0,0c-3.5,0-6.3,2.8-6.3,6.3L155.4,345L155.4,345z"/>
			<path class="st4" d="M135,345h12.7v-24.1c0-3.5-2.8-6.3-6.3-6.3l0,0c-3.5,0-6.3,2.8-6.3,6.3L135,345L135,345z"/>
		</g>
	</g>
	<g>
		<rect x="202" y="125.4" class="st7" width="86.1" height="39"/>
		<rect x="260.9" y="113.9" class="st3" width="5.3" height="28.7"/>
		<rect x="270.4" y="113.9" class="st3" width="5.3" height="28.7"/>
		<polygon class="st1" points="293.7,213.6 293.7,170 196.4,170 196.4,315 196.4,315 196.4,357.6 293.7,357.6 		"/>
		<polygon class="st8" points="196.4,164.4 196.4,120.9 202,120.9 202,164.4 288.1,164.4 288.1,120.9 293.7,120.9 293.7,164.4 
			293.6,164.4 293.6,170 196.4,170 		"/>
		<g>
			<rect x="208" y="314.5" class="st4" width="12.7" height="24.1"/>
			<rect x="228.4" y="314.5" class="st4" width="12.7" height="24.1"/>
			<rect x="248.9" y="314.5" class="st4" width="12.7" height="24.1"/>
			<rect x="269.4" y="314.5" class="st4" width="12.7" height="24.1"/>
		</g>
		<g>
			<path class="st4" d="M269.4,212.6h12.7v-24.1c0-3.5-2.8-6.3-6.3-6.3l0,0c-3.5,0-6.3,2.8-6.3,6.3v24.1H269.4z"/>
			<path class="st4" d="M248.9,212.6h12.7v-24.1c0-3.5-2.8-6.3-6.3-6.3l0,0c-3.5,0-6.3,2.8-6.3,6.3v24.1H248.9z"/>
			<path class="st4" d="M228.4,212.6h12.7v-24.1c0-3.5-2.8-6.3-6.3-6.3l0,0c-3.5,0-6.3,2.8-6.3,6.3L228.4,212.6L228.4,212.6z"/>
			<path class="st4" d="M208,212.6h12.7v-24.1c0-3.5-2.8-6.3-6.3-6.3l0,0c-3.5,0-6.3,2.8-6.3,6.3L208,212.6L208,212.6z"/>
		</g>
		<g>
			<path class="st4" d="M269.4,257h12.7v-24.1c0-3.5-2.8-6.3-6.3-6.3l0,0c-3.5,0-6.3,2.8-6.3,6.3V257H269.4z"/>
			<path class="st4" d="M248.9,257h12.7v-24.1c0-3.5-2.8-6.3-6.3-6.3l0,0c-3.5,0-6.3,2.8-6.3,6.3V257H248.9z"/>
			<path class="st4" d="M228.4,257h12.7v-24.1c0-3.5-2.8-6.3-6.3-6.3l0,0c-3.5,0-6.3,2.8-6.3,6.3L228.4,257L228.4,257z"/>
			<path class="st4" d="M208,257h12.7v-24.1c0-3.5-2.8-6.3-6.3-6.3l0,0c-3.5,0-6.3,2.8-6.3,6.3L208,257L208,257z"/>
		</g>
		<g>
			<path class="st4" d="M269.4,301.4h12.7v-24.9c0-3.6-2.8-6.6-6.3-6.6l0,0c-3.5,0-6.3,2.9-6.3,6.6v24.9H269.4z"/>
			<path class="st4" d="M248.9,301.4h12.7v-24.9c0-3.6-2.8-6.6-6.3-6.6l0,0c-3.5,0-6.3,2.9-6.3,6.6v24.9H248.9z"/>
			<path class="st4" d="M228.4,301.4h12.7v-24.9c0-3.6-2.8-6.6-6.3-6.6l0,0c-3.5,0-6.3,2.9-6.3,6.6L228.4,301.4L228.4,301.4z"/>
			<path class="st4" d="M208,301.4h12.7v-24.9c0-3.6-2.8-6.6-6.3-6.6l0,0c-3.5,0-6.3,2.9-6.3,6.6L208,301.4L208,301.4z"/>
		</g>
	</g>
	<g>
		<rect x="352.5" y="157.6" class="st8" width="10.6" height="28.7"/>
		<rect x="290.9" y="213.6" class="st2" width="97.3" height="144"/>
		<rect x="296.5" y="169" class="st6" width="86.1" height="39"/>
		<polygon class="st7" points="388.2,208 388.2,164.5 382.6,164.5 382.6,208 296.5,208 296.5,164.5 290.9,164.5 290.9,208 
			290.9,208 290.9,213.6 388.2,213.6 		"/>
		<g>
			<path class="st4" d="M315.2,256.2h-12.7v-24.1c0-3.5,2.8-6.3,6.3-6.3l0,0c3.5,0,6.3,2.8,6.3,6.3v24.1H315.2z"/>
			<path class="st4" d="M335.7,256.2H323v-24.1c0-3.5,2.8-6.3,6.3-6.3l0,0c3.5,0,6.3,2.8,6.3,6.3v24.1H335.7z"/>
			<path class="st4" d="M356.1,256.2h-12.7v-24.1c0-3.5,2.8-6.3,6.3-6.3l0,0c3.5,0,6.3,2.8,6.3,6.3v24.1H356.1z"/>
			<path class="st4" d="M376.6,256.2h-12.7v-24.1c0-3.5,2.8-6.3,6.3-6.3l0,0c3.5,0,6.3,2.8,6.3,6.3v24.1H376.6z"/>
		</g>
		<g>
			<path class="st4" d="M315.2,300.6h-12.7v-24.1c0-3.5,2.8-6.3,6.3-6.3l0,0c3.5,0,6.3,2.8,6.3,6.3v24.1H315.2z"/>
			<path class="st4" d="M335.7,300.6H323v-24.1c0-3.5,2.8-6.3,6.3-6.3l0,0c3.5,0,6.3,2.8,6.3,6.3v24.1H335.7z"/>
			<path class="st4" d="M356.1,300.6h-12.7v-24.1c0-3.5,2.8-6.3,6.3-6.3l0,0c3.5,0,6.3,2.8,6.3,6.3v24.1H356.1z"/>
			<path class="st4" d="M376.6,300.6h-12.7v-24.1c0-3.5,2.8-6.3,6.3-6.3l0,0c3.5,0,6.3,2.8,6.3,6.3v24.1H376.6z"/>
		</g>
		<g>
			<rect x="302.5" y="314.5" class="st4" width="12.7" height="24.1"/>
			<rect x="323" y="314.5" class="st4" width="12.7" height="24.1"/>
			<rect x="343.5" y="314.5" class="st4" width="12.7" height="24.1"/>
			<rect x="363.9" y="314.5" class="st4" width="12.7" height="24.1"/>
		</g>
	</g>
	<g>
		<path class="st10" d="M187.3,317.3C187.3,317.3,187.3,317.3,187.3,317.3c0,9.8,7.4,17.8,17,18.8
			C194.8,335.1,187.3,327.1,187.3,317.3z"/>
		<path class="st10" d="M206.1,298.5v37.6c10.4,0,18.8-8.4,18.8-18.8C224.9,306.9,216.5,298.5,206.1,298.5z"/>
		<path class="st11" d="M204.3,336c0.6,0.1,1.2,0.1,1.8,0.1v0h0C205.5,336.1,204.9,336.1,204.3,336z"/>
		<path class="st11" d="M206.1,298.5L206.1,298.5L206.1,298.5c-10.4-0.1-18.8,8.3-18.8,18.7c0,0,0,0,0,0.1
			C187.3,306.9,195.7,298.5,206.1,298.5z"/>
		<path class="st11" d="M206.1,298.5c-10.4,0-18.8,8.4-18.8,18.8c0,9.9,7.4,17.8,17,18.8c0.6,0.1,1.2,0.1,1.8,0.1h0L206.1,298.5
			L206.1,298.5z"/>
		<rect x="203.6" y="325.5" class="st12" width="5" height="32.1"/>
	</g>
	<g>
		<path class="st10" d="M199.5,323.8c0-8.8-7.1-15.9-15.9-15.9s-15.9,7.1-15.9,15.9s7.1,15.9,15.9,15.9c0,0,0,0,0,0
			c-8.8,0-15.9-7.1-15.9-15.8c0-8.8,7.1-15.9,15.9-15.9v31.7C192.5,339.6,199.5,332.6,199.5,323.8z"/>
		<path class="st11" d="M183.7,339.7L183.7,339.7C183.7,339.7,183.7,339.7,183.7,339.7C183.7,339.7,183.7,339.7,183.7,339.7z"/>
		<path class="st11" d="M167.8,323.9c0,8.7,7.1,15.8,15.9,15.8c0,0,0,0,0,0V308C174.9,308,167.8,315.1,167.8,323.9z"/>
		<rect x="181.6" y="330.7" class="st12" width="4.2" height="26.9"/>
	</g>
	<g>
		<path class="st10" d="M566.3,306.9c-8.8,0-15.9,7.1-15.9,15.9s7.1,15.9,15.9,15.9c0,0,0,0,0.1,0c-8.8,0-15.9-7.2-15.9-15.8
			c0-8.8,7.1-15.9,15.9-15.9v31.7c8.8-0.1,15.8-7.1,15.8-15.9C582.2,314,575.1,306.9,566.3,306.9z"/>
		<path class="st11" d="M566.4,338.7L566.4,338.7C566.4,338.7,566.4,338.7,566.4,338.7C566.4,338.7,566.4,338.7,566.4,338.7z"/>
		<path class="st11" d="M550.5,322.9c0,8.6,7.1,15.8,15.9,15.8c0,0,0,0,0,0V307C557.6,307,550.5,314.1,550.5,322.9z"/>
		<rect x="563.9" y="331" class="st12" width="5" height="26.6"/>
	</g>
</g>
</svg>
