<?xml version="1.0" encoding="utf-8"?>
<!-- Generator: Adobe Illustrator 22.0.0, SVG Export Plug-In . SVG Version: 6.00 Build 0)  -->
<svg version="1.1" id="Layer_1" xmlns="http://www.w3.org/2000/svg" xmlns:xlink="http://www.w3.org/1999/xlink" x="0px" y="0px"
	 viewBox="0 0 38.5 64" style="enable-background:new 0 0 38.5 64;" xml:space="preserve">
<style type="text/css">
	.st0{fill:#FFFFFF;}
	.st1{fill:#1C1C1C;}
</style>
<g>
	<path class="st0" d="M9.7,0C6.6,0,3.5,0,0.4,0C10,16.6,19.6,33.3,29.2,49.9c1.6-2.8,3.1-5.6,4.7-8.4C25.8,27.7,17.8,13.8,9.7,0z"/>
	<path class="st0" d="M35.4,25.1C30.6,16.7,25.7,8.4,20.9,0l0,0C18,0,15,0,12.1,0C19.7,13.2,27.4,26.3,35,39.5
		c0.9-1.6,1.7-3.2,2.6-4.8c0.4-0.6,0.9-1.6,0.9-3c0-0.5,0-1.2-0.8-2.7C36.9,27.7,36.1,26.4,35.4,25.1z"/>
	<path class="st0" d="M17.7,33.7C11.8,43.8,5.9,53.9,0,64h9.4c4.3-7.4,8.6-14.7,12.9-22.1C20.8,39.2,19.2,36.4,17.7,33.7z"/>
	<path class="st0" d="M21,64c0.1,0,0.2,0,0.2,0c0,0,0.3-0.1,0.4-0.4c0.2-0.3,3-5.3,6.7-12.1c-1.6-2.8-3.3-5.6-4.9-8.4
		c-4,7-8.1,13.9-12.1,20.9C16.8,64,20.8,64,21,64z"/>
</g>
<path class="st1" d="M9.4,62.9"/>
</svg>
