<?xml version="1.0" encoding="utf-8"?>
<!-- Generator: Adobe Illustrator 22.0.0, SVG Export Plug-In . SVG Version: 6.00 Build 0)  -->
<svg version="1.1" id="Layer_1" xmlns="http://www.w3.org/2000/svg" xmlns:xlink="http://www.w3.org/1999/xlink" x="0px" y="0px"
	 viewBox="0 0 275.2 378.4" style="enable-background:new 0 0 275.2 378.4;" xml:space="preserve">
<style type="text/css">
	.st0{fill:none;}
	.st1{fill:#FFC107;}
	.st2{fill:#0F9D58;}
	.st3{opacity:0.2;fill:#BF360C;enable-background:new    ;}
	.st4{opacity:0.2;fill:#263238;enable-background:new    ;}
	.st5{opacity:0.2;fill:#FFFFFF;enable-background:new    ;}
	.st6{fill:url(#XMLID_2_);}
	.st7{fill:url(#XMLID_3_);}
	.st8{fill:#4285F4;}
	.st9{fill:#DB4437;}
	.st10{opacity:0.2;fill:#1A237E;enable-background:new    ;}
	.st11{opacity:0.2;fill:#3E2723;enable-background:new    ;}
	.st12{fill:url(#XMLID_4_);}
	.st13{enable-background:new    ;}
	.st14{fill:#FFFFFF;}
</style>
<g id="XMLID_666_">
	<g id="XMLID_669_">
		<g id="XMLID_671_">
			<g id="XMLID_672_">
				<path id="XMLID_813_" class="st0" d="M199.4,96l-54-93.4H73.2l59.6,103l-59.6,103h72.2l54-93.4C202.8,109.3,202.8,102,199.4,96z
					"/>
				<polygon id="XMLID_812_" class="st1" points="168.4,167.2 151.3,137.6 110.2,208.7 145.4,208.7 168.9,168.1 				"/>
				<path id="XMLID_811_" class="st0" d="M199.4,96l-54-93.4H73.2l59.6,103l-59.6,103h72.2l54-93.4C202.8,109.3,202.8,102,199.4,96z
					"/>
				<polygon id="XMLID_810_" class="st2" points="132.8,105.6 151.3,137.6 110.2,208.7 73.2,208.7 				"/>
				<path id="XMLID_809_" class="st0" d="M199.4,96l-54-93.4H73.2l59.6,103l-59.6,103h72.2l54-93.4C202.8,109.3,202.8,102,199.4,96z
					"/>
				<polygon id="XMLID_808_" class="st3" points="145.4,207.1 111.1,207.1 110.2,208.7 145.4,208.7 168.9,168.1 168.4,167.2 				"/>
				<path id="XMLID_786_" class="st0" d="M199.4,96l-54-93.4H73.2l59.6,103l-59.6,103h72.2l54-93.4C202.8,109.3,202.8,102,199.4,96z
					"/>
				<polygon id="XMLID_785_" class="st4" points="74.1,207.1 73.2,208.7 110.2,208.7 111.1,207.1 				"/>
				<path id="XMLID_784_" class="st0" d="M199.4,96l-54-93.4H73.2l59.6,103l-59.6,103h72.2l54-93.4C202.8,109.3,202.8,102,199.4,96z
					"/>
				<polygon id="XMLID_783_" class="st5" points="73.2,208.7 74.1,208.7 133.2,106.4 132.8,105.6 				"/>
				<path id="XMLID_782_" class="st0" d="M199.4,96l-54-93.4H73.2l59.6,103l-59.6,103h72.2l54-93.4C202.8,109.3,202.8,102,199.4,96z
					"/>
				
					<radialGradient id="XMLID_2_" cx="168.5889" cy="354.4874" r="71.2572" gradientTransform="matrix(1 0 0 1 0 -187.0708)" gradientUnits="userSpaceOnUse">
					<stop  offset="0" style="stop-color:#BF360C;stop-opacity:0.2"/>
					<stop  offset="1" style="stop-color:#BF360C;stop-opacity:2.000000e-02"/>
				</radialGradient>
				<polygon id="XMLID_781_" class="st6" points="168.9,168.1 168.9,168.1 151.3,137.6 147,145.1 				"/>
				<path id="XMLID_780_" class="st0" d="M199.4,96l-54-93.4H73.2l59.6,103l-59.6,103h72.2l54-93.4C202.8,109.3,202.8,102,199.4,96z
					"/>
				
					<radialGradient id="XMLID_3_" cx="168.3866" cy="354.938" r="71.8357" gradientTransform="matrix(1 0 0 1 0 -187.0708)" gradientUnits="userSpaceOnUse">
					<stop  offset="0" style="stop-color:#263238;stop-opacity:0.2"/>
					<stop  offset="1" style="stop-color:#263238;stop-opacity:2.000000e-02"/>
				</radialGradient>
				<polygon id="XMLID_687_" class="st7" points="147,145.1 151.3,137.6 132.8,105.6 123.9,120.9 				"/>
				<path id="XMLID_686_" class="st0" d="M199.4,96l-54-93.4H73.2l59.6,103l-59.6,103h72.2l54-93.4C202.8,109.3,202.8,102,199.4,96z
					"/>
				<g id="XMLID_683_">
					<g id="XMLID_684_">
						<polygon id="XMLID_685_" class="st8" points="110.2,2.6 73.2,2.6 168.9,168.1 187.3,136.1 187.4,136 						"/>
					</g>
				</g>
				<path id="XMLID_682_" class="st0" d="M199.4,96l-54-93.4H73.2l59.6,103l-59.6,103h72.2l54-93.4C202.8,109.3,202.8,102,199.4,96z
					"/>
				<path id="XMLID_681_" class="st9" d="M199.4,115.3c3.5-6,3.5-13.3,0-19.3l-54-93.4h-35.2L187.4,136L199.4,115.3z"/>
				<path id="XMLID_680_" class="st0" d="M199.4,96l-54-93.4H73.2l59.6,103l-59.6,103h72.2l54-93.4C202.8,109.3,202.8,102,199.4,96z
					"/>
				<polygon id="XMLID_679_" class="st10" points="187.4,136 186.9,135.2 168.9,166.4 74.1,2.6 73.2,2.6 168.9,168.1 187.3,136.1 
									"/>
				<path id="XMLID_678_" class="st0" d="M199.4,96l-54-93.4H73.2l59.6,103l-59.6,103h72.2l54-93.4C202.8,109.3,202.8,102,199.4,96z
					"/>
				<path id="XMLID_677_" class="st5" d="M145.4,4.2l54,93.4c1.6,2.8,2.4,5.8,2.5,8.9c0.1-3.6-0.7-7.2-2.5-10.5l-54-93.4H73.2
					l0.9,1.6C74.1,4.2,145.4,4.2,145.4,4.2z"/>
				<path id="XMLID_676_" class="st0" d="M199.4,96l-54-93.4H73.2l59.6,103l-59.6,103h72.2l54-93.4C202.8,109.3,202.8,102,199.4,96z
					"/>
				<path id="XMLID_675_" class="st11" d="M187.4,136l12-20.7c1.9-3.2,2.7-6.9,2.5-10.5c-0.1,3.1-0.9,6.1-2.5,8.9l-12.5,21.6
					L187.4,136z"/>
				<path id="XMLID_674_" class="st0" d="M199.4,96l-54-93.4H73.2l59.6,103l-59.6,103h72.2l54-93.4C202.8,109.3,202.8,102,199.4,96z
					"/>
				
					<radialGradient id="XMLID_4_" cx="71.5531" cy="191.2914" r="216.2828" gradientTransform="matrix(1 0 0 1 0 -187.0708)" gradientUnits="userSpaceOnUse">
					<stop  offset="0" style="stop-color:#FFFFFF;stop-opacity:0.1"/>
					<stop  offset="1" style="stop-color:#FFFFFF;stop-opacity:0"/>
				</radialGradient>
				<path id="XMLID_673_" class="st12" d="M199.4,96l-54-93.4H73.2l59.6,103l-59.6,103h72.2l54-93.4C202.8,109.3,202.8,102,199.4,96
					z"/>
			</g>
		</g>
	</g>
	<g class="st13">
		<path class="st14" d="M24,365.7c-4.8,0-8.8-1.6-12-4.8c-3.2-3.2-4.8-7.2-4.8-12s1.6-8.8,4.8-12c3.2-3.2,7.2-4.9,12-4.9
			c4.9,0,8.8,1.8,11.8,5.3l-3,2.9c-2.3-2.8-5.3-4.2-8.9-4.2c-3.6,0-6.6,1.2-9,3.6c-2.4,2.4-3.6,5.5-3.6,9.3s1.2,6.9,3.6,9.3
			c2.4,2.4,5.4,3.6,9,3.6c3.8,0,7-1.6,9.8-4.7l3,2.9c-1.5,1.8-3.4,3.2-5.6,4.3C29,365.2,26.6,365.7,24,365.7z"/>
		<path class="st14" d="M38.8,354c0-3.4,1.1-6.2,3.2-8.4c2.2-2.2,4.9-3.3,8.1-3.3c3.3,0,6,1.1,8.1,3.3c2.2,2.2,3.2,5,3.2,8.4
			c0,3.4-1.1,6.2-3.2,8.4c-2.1,2.2-4.8,3.3-8.1,3.3c-3.3,0-6-1.1-8.1-3.3C39.9,360.2,38.8,357.4,38.8,354z M42.9,354
			c0,2.4,0.7,4.3,2.1,5.8c1.4,1.5,3.1,2.2,5.1,2.2c2,0,3.8-0.7,5.1-2.2c1.4-1.5,2.1-3.4,2.1-5.8c0-2.3-0.7-4.2-2.1-5.7
			c-1.4-1.5-3.1-2.3-5.1-2.3c-2,0-3.7,0.8-5.1,2.3C43.6,349.7,42.9,351.6,42.9,354z"/>
		<path class="st14" d="M75.3,365.7c-3.3,0-6-1.1-8.1-3.3c-2.1-2.3-3.2-5.1-3.2-8.4c0-3.4,1.1-6.2,3.2-8.4c2.2-2.2,4.9-3.3,8.1-3.3
			c2.3,0,4.2,0.6,5.9,1.7c1.7,1.1,2.9,2.7,3.8,4.7l-3.8,1.6c-1.2-2.8-3.2-4.1-6.2-4.1c-1.9,0-3.5,0.8-4.9,2.3c-1.4,1.5-2,3.4-2,5.7
			c0,2.3,0.7,4.1,2,5.7c1.4,1.5,3,2.3,4.9,2.3c3,0,5.2-1.4,6.4-4.1l3.7,1.6c-0.8,2-2.1,3.5-3.8,4.7
			C79.6,365.2,77.6,365.7,75.3,365.7z"/>
		<path class="st14" d="M88.8,332.8h4.1V343l-0.2,3.1h0.2c0.6-1.1,1.6-2,2.9-2.7c1.3-0.7,2.7-1.1,4.1-1.1c2.7,0,4.8,0.8,6.2,2.3
			c1.5,1.5,2.2,3.7,2.2,6.6V365h-4.1V352c0-4-1.8-5.9-5.3-5.9c-1.7,0-3.1,0.7-4.3,2.1c-1.2,1.4-1.7,3-1.7,4.9v12h-4.1V332.8z"/>
		<path class="st14" d="M121.3,342.2c3.1,0,5.5,0.8,7.2,2.5c1.8,1.6,2.7,3.9,2.7,6.7V365h-4v-3.1h-0.2c-1.7,2.5-4,3.8-6.8,3.8
			c-2.4,0-4.5-0.7-6.1-2.2c-1.6-1.4-2.5-3.2-2.5-5.4c0-2.3,0.9-4.1,2.6-5.4c1.7-1.4,4-2,6.9-2c2.5,0,4.5,0.5,6.1,1.4v-0.9
			c0-1.4-0.6-2.7-1.7-3.7c-1.1-1-2.5-1.5-4-1.5c-2.3,0-4.1,1-5.5,2.9l-3.6-2.3C114.4,343.7,117.4,342.2,121.3,342.2z M116,358.3
			c0,1.1,0.5,2,1.4,2.7c0.9,0.7,2,1.1,3.2,1.1c1.7,0,3.3-0.6,4.7-1.9c1.4-1.3,2-2.8,2-4.5c-1.3-1-3.1-1.5-5.4-1.5
			c-1.7,0-3.1,0.4-4.2,1.2S116,357.1,116,358.3z"/>
		<path class="st14" d="M147.6,365.7c-1.6,0-3.1-0.3-4.4-1c-1.3-0.7-2.4-1.6-3.1-2.7h-0.2v3.1h-4v-32.2h4.1V343l-0.2,3.1h0.2
			c0.7-1.1,1.7-2.1,3.1-2.7c1.3-0.7,2.8-1,4.4-1c2.9,0,5.4,1.1,7.4,3.4c2.1,2.3,3.1,5.1,3.1,8.3c0,3.3-1,6-3.1,8.3
			C152.9,364.6,150.5,365.7,147.6,365.7z M146.9,361.9c2,0,3.6-0.7,5-2.3c1.4-1.5,2-3.4,2-5.7c0-2.3-0.7-4.2-2-5.7
			c-1.4-1.5-3-2.3-5-2.3c-2,0-3.7,0.8-5,2.3c-1.3,1.5-2,3.4-2,5.7c0,2.3,0.7,4.3,2,5.8C143.2,361.2,144.9,361.9,146.9,361.9z"/>
		<path class="st14" d="M170.2,342.2c3.1,0,5.5,0.8,7.2,2.5c1.8,1.6,2.7,3.9,2.7,6.7V365h-4v-3.1H176c-1.7,2.5-4,3.8-6.8,3.8
			c-2.4,0-4.5-0.7-6.1-2.2c-1.6-1.4-2.5-3.2-2.5-5.4c0-2.3,0.9-4.1,2.6-5.4c1.7-1.4,4-2,6.9-2c2.5,0,4.5,0.5,6.1,1.4v-0.9
			c0-1.4-0.6-2.7-1.7-3.7c-1.1-1-2.5-1.5-4-1.5c-2.3,0-4.1,1-5.5,2.9l-3.6-2.3C163.3,343.7,166.3,342.2,170.2,342.2z M164.8,358.3
			c0,1.1,0.5,2,1.4,2.7c0.9,0.7,2,1.1,3.2,1.1c1.7,0,3.3-0.6,4.7-1.9s2-2.8,2-4.5c-1.3-1-3.1-1.5-5.4-1.5c-1.7,0-3.1,0.4-4.2,1.2
			C165.4,356.1,164.8,357.1,164.8,358.3z"/>
		<path class="st14" d="M188.9,365h-4.1V343h4v3.1h0.2c0.6-1.1,1.6-2,2.9-2.7c1.3-0.7,2.6-1.1,3.9-1.1c1.6,0,3,0.4,4.3,1.1
			c1.2,0.8,2.1,1.8,2.7,3.1c1.8-2.8,4.4-4.2,7.6-4.2c2.5,0,4.5,0.8,5.9,2.3c1.4,1.6,2.1,3.8,2.1,6.7V365h-4.1v-13.1
			c0-2.1-0.4-3.6-1.1-4.5c-0.8-0.9-2-1.4-3.8-1.4c-1.6,0-2.9,0.7-4,2c-1.1,1.4-1.6,2.9-1.6,4.8V365h-4.1v-13.1
			c0-2.1-0.4-3.6-1.1-4.5c-0.8-0.9-2-1.4-3.8-1.4c-1.6,0-2.9,0.7-4,2c-1.1,1.4-1.6,2.9-1.6,4.8V365z"/>
		<path class="st14" d="M234.8,365.7c-1.6,0-3.1-0.3-4.4-1c-1.3-0.7-2.4-1.6-3.1-2.7h-0.2v3.1h-4v-32.2h4.1V343l-0.2,3.1h0.2
			c0.7-1.1,1.7-2.1,3.1-2.7c1.3-0.7,2.8-1,4.4-1c2.9,0,5.4,1.1,7.4,3.4c2.1,2.3,3.1,5.1,3.1,8.3c0,3.3-1,6-3.1,8.3
			C240.2,364.6,237.7,365.7,234.8,365.7z M234.1,361.9c2,0,3.6-0.7,5-2.3c1.4-1.5,2-3.4,2-5.7c0-2.3-0.7-4.2-2-5.7
			c-1.4-1.5-3-2.3-5-2.3c-2,0-3.7,0.8-5,2.3c-1.3,1.5-2,3.4-2,5.7c0,2.3,0.7,4.3,2,5.8C230.4,361.2,232.1,361.9,234.1,361.9z"/>
		<path class="st14" d="M257.4,342.2c3.1,0,5.5,0.8,7.2,2.5c1.8,1.6,2.7,3.9,2.7,6.7V365h-4v-3.1h-0.2c-1.7,2.5-4,3.8-6.8,3.8
			c-2.4,0-4.5-0.7-6.1-2.2c-1.6-1.4-2.5-3.2-2.5-5.4c0-2.3,0.9-4.1,2.6-5.4c1.7-1.4,4-2,6.9-2c2.5,0,4.5,0.5,6.1,1.4v-0.9
			c0-1.4-0.6-2.7-1.7-3.7c-1.1-1-2.5-1.5-4-1.5c-2.3,0-4.1,1-5.5,2.9l-3.6-2.3C250.5,343.7,253.5,342.2,257.4,342.2z M252.1,358.3
			c0,1.1,0.5,2,1.4,2.7c0.9,0.7,2,1.1,3.2,1.1c1.7,0,3.3-0.6,4.7-1.9s2-2.8,2-4.5c-1.3-1-3.1-1.5-5.4-1.5c-1.7,0-3.1,0.4-4.2,1.2
			C252.6,356.1,252.1,357.1,252.1,358.3z"/>
	</g>
	<g class="st13">
		<path class="st14" d="M92.5,283.9c0,11.7-3.5,21-10.4,27.9c-7.8,8.3-18,12.4-30.7,12.4c-12.2,0-22.4-4.2-30.9-12.6
			c-8.4-8.4-12.6-18.8-12.6-31.1c0-12.3,4.2-22.7,12.6-31.1c8.4-8.4,18.7-12.6,30.9-12.6c6.2,0,12,1.1,17.4,3.3
			c5.5,2.2,9.9,5.3,13.4,9.2l-7.7,7.7c-2.6-3.1-5.9-5.6-10-7.3s-8.5-2.6-13.1-2.6c-9.1,0-16.8,3.2-23.1,9.5
			c-6.2,6.4-9.3,14.4-9.3,24s3.1,17.6,9.3,24c6.3,6.3,14,9.5,23.1,9.5c8.3,0,15.3-2.3,20.8-7c5.5-4.7,8.7-11.1,9.6-19.3H51.4v-10.1
			h40.6C92.3,279.8,92.5,281.9,92.5,283.9z"/>
		<path class="st14" d="M105.6,322.4v-83.7h25.6c12.8,0,23,3.9,30.8,11.6c7.8,7.7,11.6,17.8,11.6,30.3c0,12.5-3.9,22.7-11.6,30.3
			c-7.8,7.7-18,11.5-30.8,11.5H105.6z M116.3,249v63.1h14.8c9.7,0,17.4-2.8,23-8.4c5.6-5.6,8.4-13.3,8.4-23.2
			c0-9.8-2.8-17.5-8.4-23.1s-13.3-8.4-23-8.4H116.3z"/>
		<path class="st14" d="M266.9,283.9c0,11.7-3.5,21-10.4,27.9c-7.8,8.3-18,12.4-30.7,12.4c-12.2,0-22.4-4.2-30.9-12.6
			c-8.4-8.4-12.6-18.8-12.6-31.1c0-12.3,4.2-22.7,12.6-31.1c8.4-8.4,18.7-12.6,30.9-12.6c6.2,0,12,1.1,17.4,3.3
			c5.5,2.2,9.9,5.3,13.4,9.2l-7.7,7.7c-2.6-3.1-5.9-5.6-10-7.3c-4.1-1.8-8.5-2.6-13.1-2.6c-9.1,0-16.8,3.2-23.1,9.5
			c-6.2,6.4-9.3,14.4-9.3,24s3.1,17.6,9.3,24c6.3,6.3,14,9.5,23.1,9.5c8.3,0,15.3-2.3,20.8-7c5.5-4.7,8.7-11.1,9.6-19.3h-30.4v-10.1
			h40.6C266.7,279.8,266.9,281.9,266.9,283.9z"/>
	</g>
</g>
</svg>
