<?xml version="1.0" standalone="no"?>
<!DOCTYPE svg PUBLIC "-//W3C//DTD SVG 20010904//EN"
 "http://www.w3.org/TR/2001/REC-SVG-20010904/DTD/svg10.dtd">
<svg version="1.0" xmlns="http://www.w3.org/2000/svg"
 width="1024.000000pt" height="1024.000000pt" viewBox="0 0 1024.000000 1024.000000"
 preserveAspectRatio="xMidYMid meet">
<metadata>
Created by potrace 1.11, written by Peter Selinger 2001-2013
</metadata>
<g transform="translate(0.000000,1024.000000) scale(0.100000,-0.100000)"
fill="#000000" stroke="none">
<path d="M3417 10086 c8 -17 22 -39 31 -48 8 -10 12 -18 8 -18 -4 0 7 -20 24
-44 16 -25 30 -49 30 -55 0 -6 4 -11 8 -11 5 0 14 -16 22 -35 8 -19 17 -35 22
-35 4 0 8 -5 8 -10 0 -10 208 -373 241 -421 10 -14 16 -28 13 -31 -2 -3 2 -11
11 -18 8 -7 15 -19 15 -26 0 -8 5 -14 10 -14 6 0 10 -4 10 -9 0 -4 21 -45 48
-90 26 -45 54 -93 62 -109 15 -26 155 -268 198 -342 12 -19 27 -46 35 -60 23
-42 245 -426 267 -462 11 -18 31 -55 46 -83 15 -27 29 -52 33 -55 7 -6 26 -38
53 -90 10 -19 24 -44 31 -55 39 -62 61 -101 62 -107 0 -4 6 -13 13 -20 6 -6
12 -16 12 -20 0 -4 18 -37 40 -73 22 -36 40 -70 40 -75 0 -6 5 -10 10 -10 6 0
10 -4 10 -10 0 -5 20 -44 45 -86 25 -41 45 -80 45 -85 0 -5 4 -9 9 -9 5 0 11
-8 14 -17 3 -10 15 -34 27 -53 24 -39 21 -52 -25 -125 -14 -22 -28 -47 -32
-55 -4 -8 -24 -43 -45 -78 -21 -34 -38 -64 -38 -66 0 -4 -93 -166 -119 -206
-8 -14 -14 -28 -13 -32 1 -5 -3 -8 -8 -8 -6 0 -10 -7 -10 -15 0 -8 -4 -15 -10
-15 -5 0 -10 -5 -10 -11 0 -6 -32 -65 -72 -132 -40 -67 -78 -133 -86 -147 -16
-31 -48 -86 -94 -165 -19 -33 -79 -136 -133 -230 -54 -93 -108 -186 -120 -205
-12 -19 -25 -45 -29 -57 -4 -13 -11 -23 -16 -23 -4 0 -15 -17 -24 -37 -22 -51
-49 -97 -58 -101 -5 -2 -8 -10 -8 -18 0 -8 -5 -14 -11 -14 -5 0 -7 -4 -4 -10
3 -5 1 -10 -5 -10 -6 0 -8 -4 -5 -10 3 -5 2 -10 -2 -10 -5 0 -21 -24 -37 -52
-45 -85 -61 -113 -68 -118 -4 -3 -12 -17 -17 -30 -6 -14 -15 -32 -21 -40 -17
-26 -120 -202 -120 -205 0 -2 -29 -53 -65 -114 -36 -60 -65 -114 -65 -120 0
-5 -4 -11 -8 -13 -4 -1 -37 -54 -72 -116 -36 -62 -75 -130 -87 -150 -12 -20
-22 -42 -22 -48 -1 -8 276 -11 962 -11 l963 0 25 41 c13 23 28 51 32 64 5 12
12 22 17 22 4 0 13 14 21 32 7 17 37 71 66 120 30 49 63 104 73 124 11 19 104
179 205 355 102 175 185 323 185 329 0 5 4 10 9 10 5 0 11 8 14 18 4 9 17 35
30 57 13 22 57 96 96 165 39 69 76 132 81 140 5 8 43 74 85 147 42 73 80 135
86 138 5 4 7 10 4 15 -3 4 2 13 10 20 8 7 15 16 15 21 0 7 87 159 120 209 6 8
13 22 17 30 4 8 32 58 63 110 31 52 75 129 99 170 23 41 58 102 78 135 55 94
81 188 81 286 -1 46 -3 89 -7 94 -3 6 -7 21 -9 35 -5 39 -65 158 -153 303 -16
26 -29 52 -29 57 0 6 -4 10 -10 10 -5 0 -10 4 -10 8 0 10 -65 126 -196 349
-30 51 -54 97 -54 102 0 6 -4 11 -9 11 -5 0 -13 9 -16 20 -4 11 -24 49 -46 85
-21 36 -39 69 -39 75 0 5 -4 10 -9 10 -5 0 -11 8 -14 18 -4 9 -20 40 -37 67
-17 28 -35 59 -40 70 -6 11 -19 34 -29 50 -11 17 -32 54 -47 83 -15 28 -31 52
-36 52 -4 0 -8 9 -8 20 0 11 -4 20 -10 20 -5 0 -10 4 -10 9 0 12 -83 155 -92
159 -5 2 -8 8 -8 13 0 6 -22 48 -50 95 -27 47 -50 89 -50 94 0 6 -4 10 -8 10
-4 0 -13 12 -19 28 -7 15 -17 34 -23 42 -12 18 -136 231 -163 280 -10 19 -27
49 -37 65 -11 17 -27 46 -37 65 -9 19 -19 37 -22 40 -4 3 -12 16 -19 29 -26
45 -50 86 -85 146 -20 33 -44 76 -53 95 -10 19 -19 37 -22 40 -2 3 -440 5
-972 6 l-969 1 16 -31z"/>
<path d="M2665 3843 c-156 -29 -192 -37 -235 -54 -19 -7 -38 -12 -42 -11 -5 1
-8 -3 -8 -8 0 -5 -3 -9 -7 -8 -14 4 -153 -65 -153 -75 0 -6 -3 -8 -6 -4 -6 6
-76 -41 -82 -55 -2 -5 -8 -8 -13 -8 -15 0 -125 -102 -200 -186 -118 -132 -219
-355 -249 -549 -25 -155 -16 -378 19 -515 83 -319 310 -596 608 -745 93 -46
230 -90 311 -100 26 -4 58 -8 72 -11 58 -11 324 -3 370 11 8 2 29 7 46 10 105
17 263 83 368 153 68 44 266 232 266 251 0 5 6 16 14 23 21 22 93 158 111 213
32 94 63 242 57 267 -1 4 3 19 8 33 6 15 6 25 0 25 -5 0 -7 6 -4 14 7 19 11
136 4 136 -3 0 -6 10 -7 23 -3 80 -6 87 -38 87 -16 0 -37 0 -45 0 -8 0 -61 -1
-117 -2 -63 -2 -105 1 -107 7 -3 6 -5 7 -5 0 -1 -11 -141 -12 -159 -1 -7 4
-12 4 -12 -1 0 -12 -144 -10 -152 2 -5 7 -8 7 -8 0 0 -6 -28 -10 -65 -10 -36
0 -65 4 -65 8 0 5 -5 5 -12 1 -7 -4 -77 -7 -155 -7 -89 0 -146 -3 -150 -10 -3
-6 -7 -66 -7 -134 l-1 -123 25 -1 c14 0 196 -1 405 -2 435 -2 393 9 367 -102
-20 -88 -18 -80 -54 -165 -97 -227 -332 -393 -608 -427 -93 -12 -240 -6 -325
12 -16 4 -34 8 -40 9 -56 12 -197 73 -203 89 -2 4 -9 7 -14 7 -14 0 -103 67
-154 116 -88 86 -168 210 -211 329 -37 103 -52 207 -48 350 2 72 6 140 9 153
37 159 78 256 150 356 56 78 144 162 224 216 70 47 207 108 261 116 20 3 51 9
70 14 42 11 274 10 321 -2 181 -47 295 -104 393 -197 l58 -55 99 99 c55 55
100 104 100 110 -1 27 -213 195 -247 195 -7 0 -13 5 -13 10 0 6 -3 9 -7 8 -5
0 -26 7 -48 17 -72 32 -170 65 -192 65 -13 0 -23 5 -23 11 0 5 -4 8 -9 5 -5
-3 -33 -1 -62 5 -51 11 -331 20 -374 12z"/>
<path d="M7280 3834 c-36 -8 -78 -16 -95 -20 -16 -4 -38 -7 -47 -8 -10 0 -18
-4 -18 -8 0 -4 -3 -7 -7 -6 -8 1 -22 -4 -83 -30 -19 -8 -38 -16 -41 -16 -13
-2 -84 -42 -87 -48 -2 -5 -8 -8 -14 -8 -9 0 -78 -46 -126 -84 -30 -24 -179
-173 -205 -206 -16 -19 -40 -55 -55 -80 -14 -25 -29 -47 -32 -50 -13 -12 -69
-141 -93 -215 -38 -117 -50 -189 -51 -307 -1 -43 -3 -78 -6 -78 -3 0 -5 -12
-4 -27 1 -16 3 -28 4 -28 1 0 3 -18 5 -40 5 -67 15 -140 25 -174 5 -17 7 -31
5 -31 -2 0 2 -15 10 -34 8 -18 16 -44 19 -58 4 -25 72 -168 108 -228 96 -158
292 -336 468 -425 86 -43 220 -87 305 -99 22 -3 51 -8 65 -11 14 -3 77 -6 140
-6 348 -2 603 96 823 315 85 85 122 134 172 229 58 109 94 225 111 347 8 61
10 278 2 325 l-5 30 -129 3 c-71 1 -133 2 -139 2 -5 1 -56 -1 -112 -2 -63 -2
-105 1 -107 7 -3 6 -5 7 -5 0 -1 -11 -141 -12 -159 -1 -7 4 -12 4 -12 -1 0
-12 -144 -10 -152 2 -5 7 -8 7 -8 0 0 -6 -50 -10 -133 -9 l-132 1 1 -131 c1
-72 2 -133 3 -136 0 -3 181 -4 401 -4 220 1 402 -1 404 -5 2 -3 -4 -45 -14
-92 -66 -323 -315 -549 -655 -595 -60 -8 -214 -9 -270 -1 -116 15 -242 63
-348 131 -73 47 -192 164 -240 237 -239 361 -187 883 117 1173 119 113 253
184 421 222 46 10 302 14 333 5 15 -5 52 -14 82 -21 115 -26 302 -134 356
-205 10 -14 22 -25 26 -25 4 0 53 45 108 101 87 88 99 103 88 118 -68 88 -281
221 -403 252 -25 6 -45 14 -45 18 0 4 -17 8 -37 9 -21 2 -40 6 -43 10 -3 4
-14 8 -25 8 -11 1 -36 5 -55 9 -63 13 -341 12 -410 -1z"/>
<path d="M4380 3801 c0 -4 -22 -6 -49 -4 -29 3 -52 0 -56 -7 -5 -8 -9 -1566
-5 -2170 l0 -65 393 1 c447 2 511 6 667 50 61 16 67 19 160 60 188 85 368 251
467 434 29 54 85 191 89 220 2 8 7 33 13 56 39 153 41 429 5 584 -3 14 -7 37
-9 51 -2 14 -13 47 -25 73 -11 26 -20 56 -20 66 0 9 -7 23 -15 30 -9 7 -13 15
-11 18 3 3 -3 17 -13 31 -10 14 -21 34 -24 44 -19 52 -156 215 -238 282 -167
139 -393 223 -642 240 -37 2 -72 7 -77 10 -6 4 -10 2 -10 -2 0 -9 -84 -7 -107
2 -7 2 -13 1 -13 -3 0 -4 -25 -7 -55 -7 -30 0 -55 3 -55 6 0 4 -15 4 -32 0
-18 -4 -48 -4 -65 0 -18 3 -33 4 -33 0 0 -3 -25 -6 -55 -6 -30 0 -55 3 -55 6
0 4 -15 3 -32 0 -18 -4 -48 -4 -65 0 -18 4 -33 4 -33 0z m245 -281 c6 -1 13
-1 18 0 17 4 75 3 90 -3 9 -3 18 -3 21 1 4 6 85 8 111 2 6 -1 15 -1 20 0 16 3
115 1 175 -3 240 -18 440 -121 575 -297 58 -76 119 -211 131 -290 2 -8 5 -26
9 -40 20 -84 24 -410 4 -410 -3 0 -6 -6 -6 -12 -1 -27 -14 -91 -20 -102 -4 -6
-9 -19 -10 -28 -4 -27 -86 -180 -113 -212 -89 -104 -175 -170 -286 -218 -53
-23 -97 -35 -246 -68 -21 -4 -38 -4 -38 1 0 5 -10 5 -22 1 -13 -5 -126 -8
-252 -8 l-230 1 1 28 c1 15 2 30 3 35 3 10 1 60 -3 100 -2 18 0 35 5 38 4 3 3
14 -2 25 -8 14 -7 19 2 19 9 0 9 3 1 11 -8 8 -8 20 -3 35 6 16 6 24 -1 24 -6
0 -6 6 -1 18 5 9 6 26 2 37 -4 11 -4 32 1 47 4 14 5 29 2 32 -9 8 -10 67 -1
72 4 3 3 14 -2 25 -8 14 -7 19 2 19 9 0 9 3 1 11 -8 8 -8 20 -3 35 6 16 6 24
-1 24 -6 0 -7 6 0 17 5 9 5 26 1 37 -10 27 -10 36 1 64 6 15 5 21 -1 17 -6 -4
-7 2 -1 18 5 13 5 30 1 37 -5 8 -5 19 1 26 7 8 6 14 -1 19 -8 5 -8 10 0 20 6
7 7 16 3 18 -10 6 -7 82 3 99 4 6 3 8 -3 5 -6 -4 -7 10 -3 38 4 25 3 45 -1 45
-5 0 -4 11 1 25 5 13 6 26 2 29 -9 5 -6 82 4 98 4 7 3 8 -4 4 -9 -5 -9 -1 -3
17 5 13 5 30 1 37 -5 8 -5 19 1 26 7 8 6 14 -1 19 -8 5 -8 10 0 20 6 7 7 16 3
18 -10 6 -7 82 3 99 4 6 3 8 -3 5 -7 -5 -8 4 -3 28 4 20 4 38 -1 41 -5 3 -5
12 0 22 5 9 5 25 2 36 -4 10 -5 31 -3 45 4 26 20 31 67 21z"/>
<path d="M1960 1284 c-223 -61 -357 -283 -316 -524 9 -51 44 -138 63 -158 7
-7 13 -17 13 -21 0 -15 73 -83 125 -116 76 -49 157 -68 264 -62 47 2 96 7 107
10 46 12 141 67 177 102 l39 38 -41 39 -41 40 -46 -41 c-131 -115 -331 -110
-455 12 -140 139 -122 407 37 525 24 17 49 32 57 32 7 0 19 6 25 13 9 8 46 12
110 12 108 0 140 -11 209 -70 l40 -34 38 39 39 40 -24 25 c-36 38 -109 82
-165 98 -67 19 -187 20 -255 1z"/>
<path d="M7421 1280 c-4 -3 -7 -196 -6 -430 l0 -425 30 -5 c16 -3 41 -3 55 0
21 6 25 12 22 38 -2 36 7 41 25 13 7 -10 36 -31 65 -45 99 -48 206 -33 289 41
119 108 143 290 54 428 -38 59 -56 76 -112 105 -91 47 -216 32 -283 -33 l-35
-35 2 173 3 173 -51 4 c-28 1 -54 1 -58 -2z m356 -371 c67 -25 114 -101 116
-188 1 -78 -17 -123 -67 -169 -81 -74 -195 -65 -257 21 -35 48 -43 74 -43 142
-2 151 119 244 251 194z"/>
<path d="M3817 1260 c-3 -11 -1 -20 5 -20 5 0 6 -6 2 -12 -11 -17 -11 -108 -1
-108 5 0 5 -6 1 -12 -11 -17 -11 -108 0 -108 5 0 4 -6 -1 -12 -8 -11 -10 -73
-3 -103 1 -5 1 -14 0 -20 -6 -28 -4 -105 3 -105 5 0 5 -6 1 -12 -11 -17 -11
-108 -1 -108 5 0 5 -6 1 -12 -11 -17 -11 -108 0 -108 5 0 4 -6 -1 -12 -5 -7
-8 -19 -7 -25 1 -7 2 -25 3 -41 1 -26 3 -27 52 -25 29 1 53 4 56 6 2 2 4 90 6
196 2 158 5 193 17 201 8 5 11 10 7 10 -5 0 1 14 13 30 60 84 191 85 238 2 18
-34 20 -54 21 -235 0 -109 2 -201 5 -205 5 -8 80 -7 100 1 8 3 11 71 9 217 -1
228 -10 278 -58 326 -84 84 -251 82 -326 -4 l-29 -33 2 175 3 176 -56 0 c-48
0 -57 -3 -62 -20z"/>
<path d="M5079 1253 c-1 -15 0 -44 0 -63 1 -19 1 -46 0 -60 -1 -23 -1 -50 1
-82 1 -16 0 -124 -1 -163 -1 -27 -1 -42 1 -77 1 -15 0 -122 -1 -158 -1 -14 -1
-36 0 -50 0 -14 1 -38 0 -55 -1 -43 -1 -87 0 -107 1 -15 11 -18 57 -18 l56 0
-4 30 c-6 37 6 47 24 22 53 -71 205 -95 299 -46 44 22 132 117 134 144 0 3 3
10 7 15 7 11 17 62 22 107 6 49 -14 140 -40 184 -57 97 -133 145 -234 150 -72
3 -138 -21 -189 -70 l-27 -26 5 47 c3 27 6 104 5 173 l-1 125 -56 3 c-56 3
-57 3 -58 -25z m378 -350 c18 -8 43 -29 56 -46 24 -32 51 -97 40 -97 -3 0 0
-6 6 -13 6 -8 8 -16 6 -19 -3 -3 -7 -26 -10 -51 -7 -92 -86 -170 -175 -173
-107 -5 -193 89 -191 211 0 30 5 64 11 75 6 11 8 20 5 20 -3 0 -1 6 4 13 6 6
22 26 36 44 46 57 135 72 212 36z"/>
<path d="M2685 1012 c-138 -47 -212 -165 -201 -320 6 -95 37 -162 98 -217 112
-101 289 -103 402 -4 126 111 140 321 31 454 -72 89 -214 126 -330 87z m193
-114 c64 -39 100 -109 96 -190 -6 -130 -87 -211 -203 -204 -108 8 -181 100
-175 221 2 61 14 91 50 134 56 67 156 84 232 39z"/>
<path d="M3362 1015 c-96 -29 -178 -122 -199 -223 -8 -37 -10 -135 -4 -147 3
-5 7 -18 8 -28 10 -60 84 -152 150 -185 82 -42 207 -43 283 -3 49 26 120 106
120 136 0 3 -21 15 -46 26 -47 20 -74 14 -74 -16 0 -20 -73 -65 -118 -71 -81
-11 -162 40 -197 123 -21 50 -17 144 8 191 25 48 48 69 101 92 40 18 52 19
118 5 27 -6 78 -49 96 -81 9 -16 12 -16 61 2 28 10 51 21 51 25 0 11 -50 81
-73 101 -65 57 -193 81 -285 53z"/>
<path d="M4579 1010 c-47 -16 -75 -35 -111 -74 -22 -23 -19 -28 38 -61 l45
-26 19 24 c41 51 163 68 215 29 53 -38 87 -150 38 -123 -10 5 -40 13 -68 17
-131 21 -233 -13 -302 -99 -20 -25 -25 -130 -9 -169 46 -109 198 -163 310
-108 25 12 54 33 65 46 24 31 35 31 29 0 -3 -14 -2 -30 2 -36 9 -14 99 -18
103 -5 2 6 3 105 2 220 -1 193 -3 213 -23 251 -59 115 -208 163 -353 114z
m239 -324 c21 -11 31 -22 28 -34 -25 -129 -182 -198 -267 -116 -53 51 -28 131
52 161 44 16 145 10 187 -11z"/>
<path d="M5884 1009 c-68 -26 -154 -109 -113 -109 6 0 26 -12 45 -26 l35 -27
27 26 c52 50 128 66 193 39 24 -9 78 -64 80 -80 0 -4 2 -16 4 -26 6 -32 -2
-35 -52 -20 -152 46 -316 -9 -352 -119 -7 -20 -10 -41 -7 -46 4 -5 2 -12 -4
-16 -6 -4 -8 -11 -4 -16 3 -5 8 -22 10 -37 15 -81 114 -152 215 -153 65 -1
115 18 158 60 17 17 34 31 36 31 3 0 4 -12 4 -27 -3 -45 -1 -48 33 -46 18 1
42 2 53 2 19 1 20 7 18 208 0 115 -3 218 -6 230 -15 62 -69 122 -137 151 -56
24 -175 24 -236 1z m243 -322 c30 -16 31 -18 21 -56 -19 -75 -97 -131 -182
-131 -41 0 -95 36 -102 68 -3 15 -7 32 -9 38 -5 17 45 75 79 90 40 18 150 13
193 -9z"/>
<path d="M6593 1007 c-21 -11 -50 -30 -64 -44 -29 -27 -37 -23 -34 20 2 28 2
28 -53 25 l-55 -3 1 -275 c0 -151 1 -284 1 -296 1 -19 6 -20 49 -17 26 2 52 5
57 7 11 4 12 127 0 145 -3 6 -3 11 2 11 4 0 8 55 8 122 0 88 3 122 13 126 6 2
12 10 12 17 0 19 67 75 93 76 78 5 127 -16 144 -62 6 -16 11 -104 11 -206 0
-98 1 -190 1 -204 1 -30 23 -38 81 -29 l35 5 0 185 c1 158 3 190 19 223 19 38
68 86 89 88 7 0 20 2 29 4 9 2 36 -2 58 -7 30 -8 45 -19 57 -42 24 -44 23 -40
24 -258 l1 -196 26 -4 c15 -2 41 -1 57 2 l30 5 -1 210 c-1 222 -3 245 -27 291
-37 71 -105 104 -204 100 -65 -3 -109 -24 -165 -81 -17 -17 -28 -22 -28 -14 0
22 -50 63 -99 83 -54 21 -117 18 -168 -7z"/>
<path d="M8238 1016 c-48 -13 -62 -21 -110 -65 -34 -30 -35 -48 -5 -62 12 -5
33 -16 47 -24 23 -13 26 -13 40 4 45 56 145 73 209 35 37 -22 71 -75 71 -110
0 -24 -14 -32 -24 -15 -7 11 -96 24 -151 22 -158 -5 -249 -89 -239 -219 7
-100 103 -182 213 -183 79 0 115 13 169 64 l32 31 0 -36 c0 -31 3 -36 28 -39
15 -2 39 -3 54 -1 l27 3 0 197 c0 109 -5 217 -11 242 -32 130 -188 200 -350
156z m217 -327 c52 -25 36 -92 -37 -150 -68 -54 -165 -49 -208 11 -36 51 -18
104 49 141 43 23 147 22 196 -2z"/>
</g>
</svg>
